# Blender 4.2.3 LTS
# www.blender.org
mtllib 3dtrial.mtl
o Cube
v 1.000000 0.843369 -1.550591
v 1.000000 -0.843369 -1.550591
v 1.000000 1.178105 1.550591
v 1.000000 -0.843369 1.550591
v -0.876373 0.876373 -1.838568
v -0.876373 -0.876373 -1.838568
v -1.000000 0.886872 1.630575
v -1.000000 -0.886872 1.630575
v 0.876373 0.876373 -1.838568
v 0.876373 -0.876373 -1.838568
v 0.889121 0.889121 1.838568
v 0.889121 -0.889121 1.838568
v 1.000000 -1.000000 -1.838568
v -1.000000 -0.886872 -1.630575
v 1.000000 1.000000 -1.838568
v -1.000000 0.886872 -1.630575
v -1.000000 -1.000000 -1.838568
v -0.889121 -0.889121 1.838568
v -0.889121 0.889121 1.838568
v -1.000000 1.000000 -1.838568
v -1.000000 -1.000000 1.838568
v -1.000000 1.409834 1.838568
v 1.000000 1.409834 1.838568
v 1.000000 -1.000000 1.838568
v 0.910000 0.843369 -1.550591
v 0.910000 -0.843369 -1.550591
v 0.910000 1.178105 1.550591
v 0.910000 -0.843369 1.550591
v -0.876373 0.876373 -1.673097
v -0.876373 -0.876373 -1.673097
v -0.910000 0.886872 1.630575
v -0.910000 -0.886872 1.630575
v 0.876373 0.876373 -1.673097
v 0.876373 -0.876373 -1.673097
v 0.889121 0.889121 1.673097
v 0.889121 -0.889121 1.673097
v 0.948038 -0.948040 -1.743032
v -0.910000 -0.886872 -1.630575
v 0.947014 0.954012 -1.734928
v -0.910000 0.886872 -1.630575
v -0.948038 -0.948040 -1.743032
v -0.889121 -0.889121 1.673097
v -0.889121 0.889121 1.673097
v -0.947014 0.954012 -1.734928
v -0.948038 -0.948040 1.743032
v -0.948930 1.352412 1.752437
v 0.948927 1.352414 1.752441
v 0.948038 -0.948040 1.743032
vn -0.0000 0.9938 -0.1108
vn -1.0000 -0.0000 -0.0000
vn -0.0000 -1.0000 -0.0000
vn 1.0000 -0.0000 -0.0000
vn -0.0000 -0.0000 -1.0000
vn -0.0000 -0.0000 1.0000
vn -0.0000 -0.9935 0.1135
vn -0.0000 1.0000 -0.0000
vn -0.9807 0.0002 -0.1954
vn -0.9815 -0.0002 0.1916
vn -0.9654 0.2590 -0.0285
vn -0.9399 -0.3415 -0.0000
vn -0.0000 -0.6984 0.7157
vn 0.6794 -0.0014 0.7337
vn -0.6794 -0.0014 0.7337
vn -0.0000 0.6230 0.7822
vn 0.8492 -0.5281 -0.0000
vn 0.9498 -0.0005 0.3129
vn 0.9450 0.0005 -0.3271
vn 0.9899 0.1414 -0.0081
vn -0.7810 0.0013 -0.6246
vn 0.7810 0.0013 -0.6246
vn -0.0000 0.1688 -0.9857
vn -0.0000 -0.7648 -0.6443
vn -0.0000 -0.9942 0.1073
vt 0.625000 0.500000
vt 0.875000 0.500000
vt 0.875000 0.750000
vt 0.625000 0.750000
vt 0.389141 0.014141
vt 0.610859 0.014141
vt 0.610859 0.235859
vt 0.389141 0.235859
vt 0.125000 0.500000
vt 0.375000 0.500000
vt 0.375000 0.750000
vt 0.125000 0.750000
vt 0.605421 0.519579
vt 0.394579 0.519579
vt 0.394579 0.730421
vt 0.605421 0.730421
vt 0.390453 0.265453
vt 0.390453 0.484547
vt 0.375000 0.250000
vt 0.609547 0.484547
vt 0.609547 0.265453
vt 0.625000 0.250000
vt 0.375000 0.000000
vt 0.625000 0.000000
vt 0.388860 0.986140
vt 0.611140 0.986140
vt 0.625000 1.000000
vt 0.375000 1.000000
vt 0.611140 0.763860
vt 0.388860 0.763860
s 0
usemtl Material
f 15/1/1 20/2/1 22/3/1 23/4/1
f 8/5/2 7/6/2 16/7/2 14/8/2
f 17/9/3 13/10/3 24/11/3 21/12/3
f 1/13/4 2/14/4 13/10/4 15/1/4
f 4/15/4 3/16/4 23/4/4 24/11/4
f 3/16/4 1/13/4 15/1/4 23/4/4
f 2/14/4 4/15/4 24/11/4 13/10/4
f 6/17/5 10/18/5 13/10/5 17/19/5
f 10/18/5 9/20/5 15/1/5 13/10/5
f 5/21/5 6/17/5 17/19/5 20/22/5
f 9/20/5 5/21/5 20/22/5 15/1/5
f 8/5/2 14/8/2 17/19/2 21/23/2
f 7/6/2 8/5/2 21/23/2 22/24/2
f 14/8/2 16/7/2 20/22/2 17/19/2
f 16/7/2 7/6/2 22/24/2 20/22/2
f 18/25/6 19/26/6 22/27/6 21/28/6
f 11/29/6 12/30/6 24/11/6 23/4/6
f 19/26/6 11/29/6 23/4/6 22/27/6
f 12/30/6 18/25/6 21/28/6 24/11/6
f 39/1/7 47/4/7 46/3/7 44/2/7
f 32/5/4 38/8/4 40/7/4 31/6/4
f 41/9/8 45/12/8 48/11/8 37/10/8
f 25/13/9 39/1/9 37/10/9 26/14/9
f 28/15/10 48/11/10 47/4/10 27/16/10
f 27/16/11 47/4/11 39/1/11 25/13/11
f 26/14/12 37/10/12 48/11/12 28/15/12
f 30/17/13 41/19/13 37/10/13 34/18/13
f 34/18/14 37/10/14 39/1/14 33/20/14
f 29/21/15 44/22/15 41/19/15 30/17/15
f 33/20/16 39/1/16 44/22/16 29/21/16
f 32/5/17 45/23/17 41/19/17 38/8/17
f 31/6/18 46/24/18 45/23/18 32/5/18
f 38/8/19 41/19/19 44/22/19 40/7/19
f 40/7/20 44/22/20 46/24/20 31/6/20
f 42/25/21 45/28/21 46/27/21 43/26/21
f 35/29/22 47/4/22 48/11/22 36/30/22
f 43/26/23 46/27/23 47/4/23 35/29/23
f 36/30/24 48/11/24 45/28/24 42/25/24
f 2/14/6 1/13/6 25/13/6 26/14/6
f 3/16/5 4/15/5 28/15/5 27/16/5
f 1/13/25 3/16/25 27/16/25 25/13/25
f 4/15/8 2/14/8 26/14/8 28/15/8
f 10/18/8 6/17/8 30/17/8 34/18/8
f 9/20/2 10/18/2 34/18/2 33/20/2
f 6/17/4 5/21/4 29/21/4 30/17/4
f 5/21/3 9/20/3 33/20/3 29/21/3
f 19/26/4 18/25/4 42/25/4 43/26/4
f 12/30/2 11/29/2 35/29/2 36/30/2
f 11/29/3 19/26/3 43/26/3 35/29/3
f 18/25/8 12/30/8 36/30/8 42/25/8
o Cube.001
v 1.097559 -0.843058 0.571263
v 1.097559 0.213961 0.571263
v 1.097559 -0.843058 -1.824678
v 1.097559 0.079887 -1.824678
v 0.961251 -0.843058 0.571263
v 0.961251 0.213961 0.571263
v 0.961251 -0.843058 -1.824678
v 0.961251 0.079887 -1.824678
vn 1.0000 -0.0000 -0.0000
vn -0.0000 -0.0000 -1.0000
vn -1.0000 -0.0000 -0.0000
vn -0.0000 -0.0000 1.0000
vn -0.0000 -1.0000 -0.0000
vn -0.0000 0.9984 -0.0559
vt 0.375000 0.000000
vt 0.625000 0.000000
vt 0.625000 0.250000
vt 0.375000 0.250000
vt 0.625000 0.500000
vt 0.375000 0.500000
vt 0.625000 0.750000
vt 0.375000 0.750000
vt 0.625000 1.000000
vt 0.375000 1.000000
vt 0.125000 0.500000
vt 0.125000 0.750000
vt 0.875000 0.500000
vt 0.875000 0.750000
s 0
f 49/31/26 51/34/26 52/33/26 50/32/26
f 51/34/27 55/36/27 56/35/27 52/33/27
f 55/36/28 53/38/28 54/37/28 56/35/28
f 53/38/29 49/40/29 50/39/29 54/37/29
f 51/41/30 49/42/30 53/38/30 55/36/30
f 56/35/31 54/37/31 50/44/31 52/43/31
o Cube.002
v 0.948479 -1.027417 -1.952847
v 0.948479 -0.812472 -1.952847
v 0.948479 -1.027417 1.952847
v 0.948479 -0.812472 1.952847
v 1.163425 -1.027417 -1.952847
v 1.163425 -0.812472 -1.952847
v 1.163425 -1.027417 1.952847
v 1.163425 -0.812472 1.952847
vn -1.0000 -0.0000 -0.0000
vn -0.0000 -0.0000 1.0000
vn 1.0000 -0.0000 -0.0000
vn -0.0000 -0.0000 -1.0000
vn -0.0000 -1.0000 -0.0000
vn -0.0000 1.0000 -0.0000
vt 0.375000 0.000000
vt 0.625000 0.000000
vt 0.625000 0.250000
vt 0.375000 0.250000
vt 0.625000 0.500000
vt 0.375000 0.500000
vt 0.625000 0.750000
vt 0.375000 0.750000
vt 0.625000 1.000000
vt 0.375000 1.000000
vt 0.125000 0.500000
vt 0.125000 0.750000
vt 0.875000 0.500000
vt 0.875000 0.750000
s 0
f 57/45/32 59/48/32 60/47/32 58/46/32
f 59/48/33 63/50/33 64/49/33 60/47/33
f 63/50/34 61/52/34 62/51/34 64/49/34
f 61/52/35 57/54/35 58/53/35 62/51/35
f 59/55/36 57/56/36 61/52/36 63/50/36
f 64/49/37 62/51/37 58/58/37 60/57/37
o Cube.003
v 0.979333 0.762036 2.120910
v 0.979333 1.363908 2.120910
v 0.979333 0.762036 -2.120910
v 0.979333 1.224418 -2.120910
v 1.044879 0.762036 2.120910
v 1.044879 1.363908 2.120910
v 1.044879 0.762036 -2.120910
v 1.044879 1.224418 -2.120910
vn -1.0000 -0.0000 -0.0000
vn -0.0000 -0.0000 -1.0000
vn 1.0000 -0.0000 -0.0000
vn -0.0000 -0.0000 1.0000
vn -0.0000 -1.0000 -0.0000
vn -0.0000 0.9995 -0.0329
vt 0.375000 0.000000
vt 0.625000 0.000000
vt 0.625000 0.250000
vt 0.375000 0.250000
vt 0.625000 0.500000
vt 0.375000 0.500000
vt 0.625000 0.750000
vt 0.375000 0.750000
vt 0.625000 1.000000
vt 0.375000 1.000000
vt 0.125000 0.500000
vt 0.125000 0.750000
vt 0.875000 0.500000
vt 0.875000 0.750000
s 0
f 65/59/38 66/60/38 68/61/38 67/62/38
f 67/62/39 68/61/39 72/63/39 71/64/39
f 71/64/40 72/63/40 70/65/40 69/66/40
f 69/66/41 70/65/41 66/67/41 65/68/41
f 67/69/42 71/64/42 69/66/42 65/70/42
f 72/63/43 68/71/43 66/72/43 70/65/43
